<?xml version="1.0" encoding="utf-8"?>
<!-- Generator: Adobe Illustrator 18.0.0, SVG Export Plug-In . SVG Version: 6.00 Build 0)  -->
<!DOCTYPE svg PUBLIC "-//W3C//DTD SVG 1.1//EN" "http://www.w3.org/Graphics/SVG/1.1/DTD/svg11.dtd">
<svg version="1.1" id="Layer_1" xmlns="http://www.w3.org/2000/svg" xmlns:xlink="http://www.w3.org/1999/xlink" x="0px" y="0px"
	 viewBox="0 0 768.9 773.1" enable-background="new 0 0 768.9 773.1" xml:space="preserve">
<rect x="49.8" y="449.4" fill="#83A53E" width="269.7" height="269.7"/>
<polyline points="49.3,8.9 49.3,721.1 50.3,721.1 50.3,8.9 "/>
<polygon points="46.9,10.8 49.8,0 52.7,10.8 "/>
<polyline points="49.8,719.6 760,719.6 760,718.6 49.8,718.6 "/>
<polygon points="758,722 768.9,719.1 758,716.2 "/>
<polygon fill="#232323" points="79.7,719.1 79.7,718.6 50.3,718.6 50.3,120.4 79.2,120.4 79.2,719.1 79.7,719.1 79.7,718.6 
	79.7,719.1 80.2,719.1 80.2,119.4 49.3,119.4 49.3,719.6 80.2,719.6 80.2,719.1 "/>
<polygon fill="#232323" points="109.7,719.1 109.7,718.6 80.2,718.6 80.2,180.3 109.2,180.3 109.2,719.1 109.7,719.1 109.7,718.6 
	109.7,719.1 110.2,719.1 110.2,179.3 79.2,179.3 79.2,719.6 110.2,719.6 110.2,719.1 "/>
<polygon fill="#232323" points="139.7,719.1 139.7,718.6 110.2,718.6 110.2,210.2 139.2,210.2 139.2,719.1 139.7,719.1 139.7,718.6 
	139.7,719.1 140.2,719.1 140.2,209.2 109.2,209.2 109.2,719.6 140.2,719.6 140.2,719.1 "/>
<polygon fill="#232323" points="169.6,719.1 169.6,718.6 140.2,718.6 140.2,240.2 169.1,240.2 169.1,719.1 169.6,719.1 169.6,718.6 
	169.6,719.1 170.1,719.1 170.1,239.2 139.2,239.2 139.2,719.6 170.1,719.6 170.1,719.1 "/>
<polygon fill="#232323" points="199.6,719.1 199.6,718.6 170.1,718.6 170.1,240.2 199.1,240.2 199.1,719.1 199.6,719.1 199.6,718.6 
	199.6,719.1 200.1,719.1 200.1,239.2 169.1,239.2 169.1,719.6 200.1,719.6 200.1,719.1 "/>
<polygon fill="#232323" points="229.5,719.1 229.5,718.6 200.1,718.6 200.1,270.2 229,270.2 229,719.1 229.5,719.1 229.5,718.6 
	229.5,719.1 230,719.1 230,269.2 199.1,269.2 199.1,719.6 230,719.6 230,719.1 "/>
<polygon fill="#232323" points="259.5,719.1 259.5,718.6 230,718.6 230,360.1 259,360.1 259,719.1 259.5,719.1 259.5,718.6 
	259.5,719.1 260,719.1 260,359.1 229,359.1 229,719.6 260,719.6 260,719.1 "/>
<polygon fill="#232323" points="289.5,719.1 289.5,718.6 260,718.6 260,390 289,390 289,719.1 289.5,719.1 289.5,718.6 289.5,719.1 
	290,719.1 290,389 259,389 259,719.6 290,719.6 290,719.1 "/>
<polygon fill="#232323" points="319.4,719.1 319.4,718.6 290,718.6 290,420 318.9,420 318.9,719.1 319.4,719.1 319.4,718.6 
	319.4,719.1 319.9,719.1 319.9,419 289,419 289,719.6 319.9,719.6 319.9,719.1 "/>
<polygon fill="#232323" points="349.4,719.1 349.4,718.6 319.9,718.6 319.9,479.9 348.9,479.9 348.9,719.1 349.4,719.1 349.4,718.6 
	349.4,719.1 349.9,719.1 349.9,478.9 318.9,478.9 318.9,719.6 349.9,719.6 349.9,719.1 "/>
<polygon fill="#232323" points="379.4,719.1 379.4,718.6 349.9,718.6 349.9,479.9 378.9,479.9 378.9,719.1 379.4,719.1 379.4,718.6 
	379.4,719.1 379.9,719.1 379.9,478.9 348.9,478.9 348.9,719.6 379.9,719.6 379.9,719.1 "/>
<polygon fill="#232323" points="409.3,719.1 409.3,718.6 379.9,718.6 379.9,599.8 408.8,599.8 408.8,719.1 409.3,719.1 409.3,718.6 
	409.3,719.1 409.8,719.1 409.8,598.8 378.9,598.8 378.9,719.6 409.8,719.6 409.8,719.1 "/>
<polygon fill="#232323" points="469.2,719.1 469.2,718.6 439.8,718.6 439.8,659.7 468.7,659.7 468.7,719.1 469.2,719.1 469.2,718.6 
	469.2,719.1 469.7,719.1 469.7,658.7 438.8,658.7 438.8,719.6 469.7,719.6 469.7,719.1 "/>
<polygon fill="#232323" points="439.3,719.1 439.3,718.6 409.8,718.6 409.8,659.7 438.8,659.7 438.8,719.1 439.3,719.1 439.3,718.6 
	439.3,719.1 439.8,719.1 439.8,658.7 408.8,658.7 408.8,719.6 439.8,719.6 439.8,719.1 "/>
<polygon fill="#232323" points="499.2,719.1 499.2,718.6 469.7,718.6 469.7,689.6 498.7,689.6 498.7,719.1 499.2,719.1 499.2,718.6 
	499.2,719.1 499.7,719.1 499.7,688.6 468.7,688.6 468.7,719.6 499.7,719.6 499.7,719.1 "/>
<polyline points="50.1,719.5 54.4,715.2 53.7,714.5 49.4,718.8 "/>
<path d="M628,141.6l8.6-8.6l-0.7-0.7l-8.6,8.6L628,141.6z M610.9,158.7l8.6-8.6l-0.7-0.7l-8.6,8.6L610.9,158.7z M593.8,175.8
	l8.6-8.6l-0.7-0.7l-8.6,8.6L593.8,175.8z M576.6,192.9l8.6-8.6l-0.7-0.7l-8.6,8.6L576.6,192.9z M559.5,210.1l8.6-8.6l-0.7-0.7
	l-8.6,8.6L559.5,210.1z M542.4,227.2l8.6-8.6l-0.7-0.7l-8.6,8.6L542.4,227.2z M525.3,244.3l8.6-8.6l-0.7-0.7l-8.6,8.6L525.3,244.3z
	 M508.1,261.4l8.6-8.6l-0.7-0.7l-8.6,8.6L508.1,261.4z M491,278.6l8.6-8.6l-0.7-0.7l-8.6,8.6L491,278.6z M473.9,295.7l8.6-8.6
	l-0.7-0.7l-8.6,8.6L473.9,295.7z M456.8,312.8l8.6-8.6l-0.7-0.7l-8.6,8.6L456.8,312.8z M439.6,329.9l8.6-8.6l-0.7-0.7l-8.6,8.6
	L439.6,329.9z M422.5,347.1l8.6-8.6l-0.7-0.7l-8.6,8.6L422.5,347.1z M405.4,364.2l8.6-8.6l-0.7-0.7l-8.6,8.6L405.4,364.2z
	 M388.3,381.3l8.6-8.6l-0.7-0.7l-8.6,8.6L388.3,381.3z M371.1,398.4l8.6-8.6l-0.7-0.7l-8.6,8.6L371.1,398.4z M354,415.6l8.6-8.6
	l-0.7-0.7l-8.6,8.6L354,415.6z M336.9,432.7l8.6-8.6l-0.7-0.7l-8.6,8.6L336.9,432.7z M319.8,449.8l8.6-8.6l-0.7-0.7l-8.6,8.6
	L319.8,449.8z M302.7,466.9l8.6-8.6l-0.7-0.7l-8.6,8.6L302.7,466.9z M285.5,484l8.6-8.6l-0.7-0.7l-8.6,8.6L285.5,484z M268.4,501.2
	l8.6-8.6l-0.7-0.7l-8.6,8.6L268.4,501.2z M251.3,518.3l8.6-8.6l-0.7-0.7l-8.6,8.6L251.3,518.3z M234.2,535.4l8.6-8.6l-0.7-0.7
	l-8.6,8.6L234.2,535.4z M217,552.5l8.6-8.6l-0.7-0.7l-8.6,8.6L217,552.5z M199.9,569.7l8.6-8.6l-0.7-0.7l-8.6,8.6L199.9,569.7z
	 M182.8,586.8l8.6-8.6l-0.7-0.7l-8.6,8.6L182.8,586.8z M165.7,603.9l8.6-8.6l-0.7-0.7l-8.6,8.6L165.7,603.9z M148.5,621l8.6-8.6
	l-0.7-0.7l-8.6,8.6L148.5,621z M131.4,638.2l8.6-8.6l-0.7-0.7l-8.6,8.6L131.4,638.2z M114.3,655.3l8.6-8.6l-0.7-0.7l-8.6,8.6
	L114.3,655.3z M97.2,672.4l8.6-8.6l-0.7-0.7l-8.6,8.6L97.2,672.4z M80,689.5l8.6-8.6l-0.7-0.7l-8.6,8.6L80,689.5z M62.9,706.7
	l8.6-8.6l-0.7-0.7l-8.6,8.6L62.9,706.7z"/>
<polyline points="645.1,124.4 649.4,120.2 648.7,119.5 644.4,123.7 "/>
<text transform="matrix(0 -1 1 0 30.1323 137.8071)"><tspan x="0" y="0" fill="#3B56A6" font-family="'Helvetica Neue'" font-size="36">cit</tspan><tspan x="38.7" y="0" fill="#3B56A6" font-family="'Helvetica Neue'" font-size="36">a</tspan><tspan x="57.9" y="0" fill="#3B56A6" font-family="'Helvetica Neue'" font-size="36">tions</tspan></text>
<text transform="matrix(1 0 0 1 394.3359 423.63)"><tspan x="46.6" y="0" font-family="'Helvetica Neue'" font-size="28.9576">citations = papers = h</tspan></text>
<text transform="matrix(1 0 0 1 655.7397 754.0776)"><tspan x="22.4" y="0" fill="#A53B62" font-family="'Helvetica Neue'" font-size="36">papers</tspan></text>
<path d="M48.4,448.9c-1.1,0-2.1,0.5-2.9,1.3c-1.4,1.5-2.4,3.9-3.3,7c-2.4,9.3-2.8,24.6-2.8,35.9c0,4.7,0.1,8.7,0.1,11.2
	c0,12,0,72.9,0,72.9l0.5,0l-0.4-0.3l-5.3,7.6c-0.2,0.2-0.1,0.5,0.1,0.7c0.2,0.2,0.5,0.1,0.7-0.1l5.3-7.6c0.1-0.1,0.1-0.2,0.1-0.3
	c0,0,0-15.2,0-32s0-35,0-40.9c0-2.6-0.1-6.6-0.1-11.2c0-8.6,0.2-19.5,1.4-28.2c0.6-4.4,1.4-8.2,2.5-10.9c0.6-1.3,1.2-2.4,1.9-3.1
	c0.7-0.7,1.4-1,2.2-1c0.3,0,0.5-0.2,0.5-0.5C48.9,449.2,48.7,448.9,48.4,448.9L48.4,448.9z"/>
<path d="M48.4,720.2c-0.8,0-1.5-0.3-2.2-1c-1.2-1.2-2.2-3.5-3-6.5c-2.4-9.1-2.7-24.4-2.7-35.6c0-4.7,0.1-8.7,0.1-11.2
	c0-6,0-24.2,0-40.9c0-8.4,0-16.4,0-22.3c0-2.9,0-5.4,0-7.1c0-1.7,0-2.6,0-2.6c0-0.1,0-0.2-0.1-0.3l-5.3-7.6
	c-0.2-0.2-0.5-0.3-0.7-0.1c-0.2,0.2-0.3,0.5-0.1,0.7l5.3,7.6l0.4-0.3h-0.5c0,0,0,1,0,2.6c0,11.8,0,59.8,0,70.3
	c0,2.6-0.1,6.5-0.1,11.2c0,8.6,0.2,19.5,1.4,28.4c0.6,4.4,1.4,8.3,2.6,11.1c0.6,1.4,1.3,2.6,2.1,3.4c0.8,0.8,1.8,1.3,2.9,1.3
	c0.3,0,0.5-0.2,0.5-0.5C48.9,720.4,48.7,720.2,48.4,720.2L48.4,720.2z"/>
<path d="M47.7,719.1c0,1.1,0.5,2.1,1.3,2.9c1.5,1.4,3.9,2.4,7,3.3c9.3,2.4,24.6,2.8,35.9,2.8c4.7,0,8.7-0.1,11.2-0.1
	c12,0,72.9,0,72.9,0l0-0.5l-0.3,0.4l7.6,5.3c0.2,0.2,0.5,0.1,0.7-0.1c0.2-0.2,0.1-0.5-0.1-0.7l-7.6-5.3c-0.1-0.1-0.2-0.1-0.3-0.1
	c0,0-60.9,0-72.9,0c-2.6,0-6.6,0.1-11.2,0.1c-8.6,0-19.5-0.2-28.2-1.4c-4.4-0.6-8.2-1.4-10.9-2.5c-1.3-0.6-2.4-1.2-3.1-1.9
	c-0.7-0.7-1-1.4-1-2.2c0-0.3-0.2-0.5-0.5-0.5C47.9,718.6,47.7,718.8,47.7,719.1L47.7,719.1z"/>
<path d="M318.9,719.1c0,0.8-0.3,1.5-1,2.2c-1.2,1.2-3.5,2.2-6.5,3c-9.1,2.4-24.4,2.7-35.6,2.7c-4.7,0-8.7-0.1-11.2-0.1
	c-12,0-72.9,0-72.9,0c-0.1,0-0.2,0-0.3,0.1l-7.6,5.3c-0.2,0.2-0.3,0.5-0.1,0.7c0.2,0.2,0.5,0.3,0.7,0.1l7.6-5.3l-0.3-0.4v0.5
	c0,0,1,0,2.6,0c11.8,0,59.8,0,70.3,0c2.6,0,6.5,0.1,11.2,0.1c8.6,0,19.5-0.2,28.4-1.4c4.4-0.6,8.3-1.4,11.1-2.6
	c1.4-0.6,2.6-1.3,3.4-2.1c0.8-0.8,1.3-1.8,1.3-2.9c0-0.3-0.2-0.5-0.5-0.5C319.2,718.6,318.9,718.8,318.9,719.1L318.9,719.1z"/>
<text transform="matrix(1 0 0 1 2.1206 595.3412)" font-family="'Helvetica Neue'" font-size="36">h</text>
<text transform="matrix(1 0 0 1 169.6128 764.0532)" font-family="'Helvetica Neue'" font-size="36">h</text>
</svg>
